<svg width="336" height="70" viewBox="0 0 336 70" xmlns="http://www.w3.org/2000/svg"><g id="svgGroup" stroke-linecap="round" fill-rule="evenodd" font-size="9pt" stroke="#000" stroke-width="0.25mm" fill="black" style="stroke:#000;stroke-width:0.25mm;fill:black"><path d="M 130.5 70 L 130.5 0 L 146.2 0 L 153.2 50.1 L 153.4 50.1 L 160.4 0 L 176.1 0 L 176.1 70 L 165.7 70 L 165.7 17 L 165.5 17 L 157.5 70 L 148.3 70 L 140.3 17 L 140.1 17 L 140.1 70 L 130.5 70 Z M 0 70 L 0 0 L 13.8 0 L 24.5 41.9 L 24.7 41.9 L 24.7 0 L 34.5 0 L 34.5 70 L 23.2 70 L 10 18.9 L 9.8 18.9 L 9.8 70 L 0 70 Z M 224.4 70 L 224.4 0 L 235.4 0 L 235.4 29.5 L 249.4 0 L 260.4 0 L 247.3 25.7 L 260.6 70 L 249.1 70 L 239.8 38.8 L 235.4 47.7 L 235.4 70 L 224.4 70 Z M 265.8 70 L 265.8 0 L 295.8 0 L 295.8 10 L 276.8 10 L 276.8 28.5 L 291.9 28.5 L 291.9 38.5 L 276.8 38.5 L 276.8 60 L 295.8 60 L 295.8 70 L 265.8 70 Z M 302.1 70 L 302.1 0 L 318.4 0 A 29.066 29.066 0 0 1 322.817 0.313 Q 325.144 0.672 326.991 1.442 A 11.489 11.489 0 0 1 330.8 3.95 Q 334.7 7.9 334.7 16.1 L 334.7 20.4 A 25.259 25.259 0 0 1 334.278 25.211 Q 333.763 27.857 332.62 29.806 A 10.176 10.176 0 0 1 327.5 34.2 L 327.5 34.4 A 9.225 9.225 0 0 1 330.734 36.075 A 8.631 8.631 0 0 1 333.15 39.3 A 16.431 16.431 0 0 1 334.155 42.427 Q 334.8 45.325 334.8 49.2 L 334.8 61.5 Q 334.8 64.434 334.991 66.268 A 21.93 21.93 0 0 0 335 66.35 A 12.134 12.134 0 0 0 335.951 69.888 A 13.583 13.583 0 0 0 336 70 L 324.8 70 A 18.152 18.152 0 0 1 324.275 68.251 A 13.945 13.945 0 0 1 324 66.8 A 14.955 14.955 0 0 1 323.914 65.917 Q 323.805 64.413 323.8 61.666 A 147.151 147.151 0 0 1 323.8 61.4 L 323.8 48.6 Q 323.8 43.8 322.25 41.9 A 4.556 4.556 0 0 0 320.383 40.569 Q 319.615 40.258 318.645 40.117 A 12.174 12.174 0 0 0 316.9 40 L 313.1 40 L 313.1 70 L 302.1 70 Z M 42.7 70 L 42.7 0 L 71.8 0 L 71.8 10 L 53.7 10 L 53.7 29.5 L 67.9 29.5 L 67.9 39.5 L 53.7 39.5 L 53.7 70 L 42.7 70 Z M 181.4 70 L 192.8 0 L 207.7 0 L 219.1 70 L 208.1 70 L 206.1 56.1 L 206.1 56.3 L 193.6 56.3 L 191.6 70 L 181.4 70 Z M 86.7 70 L 86.7 10 L 75.2 10 L 75.2 0 L 109.2 0 L 109.2 10 L 97.7 10 L 97.7 70 L 86.7 70 Z M 194.9 46.8 L 204.8 46.8 L 199.9 12.2 L 199.7 12.2 L 194.9 46.8 Z M 313.1 30 L 317.1 30 Q 320.4 30 322.05 28.3 Q 323.7 26.6 323.7 22.6 L 323.7 17.2 Q 323.7 13.816 322.629 12.097 A 4.26 4.26 0 0 0 322.35 11.7 A 4.239 4.239 0 0 0 320.2 10.281 Q 319.48 10.062 318.603 10.014 A 9.216 9.216 0 0 0 318.1 10 L 313.1 10 L 313.1 30 Z" vector-effect="non-scaling-stroke"/></g></svg>